# xmcd
#
# Track frame offsets:
#	150
#	19090
#	36192
#	56037
#	75929
#	89159
#	107128
#	122952
#	142124
#	161153
#	173281
#	194212
#
# Disc length: 2883 seconds
#
# Revision: 0
# Processed by: cddbd v1.5.2PL0 Copyright (c) Steve Scherf et al.
# Submitted via: audiograbber 1.83.01
#
DISCID=a80b410c
DTITLE=Hayseed Dixie - Hair Down To My Grass
DYEAR=2015
DGENRE=Rock
TTITLE0=Don't Stop Believin'
TTITLE1=Eye of the Tiger
TTITLE2=The Final Countdown
TTITLE3=We're Not Gonna Take It
TTITLE4=Summer of 69
TTITLE5=Pour Some Sugar On Me
TTITLE6=Dude Looks Like A Lady
TTITLE7=Livin' On A Prayer
TTITLE8=Wind der Veränderung
TTITLE9=We Are the Road Crew
TTITLE10=Comfortably Numb
TTITLE11=Don't Fear the Reaper
EXTD=
EXTT0=
EXTT1=
EXTT2=
EXTT3=
EXTT4=
EXTT5=
EXTT6=
EXTT7=
EXTT8=
EXTT9=
EXTT10=
EXTT11=
PLAYORDER=
